<svg width="114" height="131" viewBox="0 0 114 131" fill="none" xmlns="http://www.w3.org/2000/svg">
<path fill-rule="evenodd" clip-rule="evenodd" d="M31.6667 13.8726H82.3333V0.936279H95V13.8726H101.333C104.693 13.8726 107.915 15.2355 110.29 17.6616C112.665 20.0876 114 23.378 114 26.8089V117.363C114 120.794 112.665 124.085 110.29 126.511C107.915 128.937 104.693 130.3 101.333 130.3H12.6667C9.30726 130.3 6.08544 128.937 3.70998 126.511C1.33452 124.085 0 120.794 0 117.363V26.8089C0 23.378 1.33452 20.0876 3.70998 17.6616C6.08544 15.2355 9.30726 13.8726 12.6667 13.8726H19V0.936279H31.6667V13.8726ZM12.6667 39.7453V117.363H101.333V39.7453H12.6667ZM25.3333 59.1498H38V72.0861H25.3333V59.1498ZM50.6667 59.1498H63.3333V72.0861H50.6667V59.1498ZM76 59.1498H88.6667V72.0861H76V59.1498ZM76 85.0224H88.6667V97.9588H76V85.0224ZM50.6667 85.0224H63.3333V97.9588H50.6667V85.0224ZM25.3333 85.0224H38V97.9588H25.3333V85.0224Z" fill="#FF9900"/>
</svg>
