<svg width="128" height="114" viewBox="0 0 128 114" fill="none" xmlns="http://www.w3.org/2000/svg">
<path d="M7.00002 0H121C122.68 0 124.291 0.66726 125.478 1.85499C126.666 3.04272 127.333 4.65363 127.333 6.33333V107.667C127.333 109.346 126.666 110.957 125.478 112.145C124.291 113.333 122.68 114 121 114H7.00002C5.32032 114 3.70941 113.333 2.52168 112.145C1.33395 110.957 0.666687 109.346 0.666687 107.667V6.33333C0.666687 4.65363 1.33395 3.04272 2.52168 1.85499C3.70941 0.66726 5.32032 0 7.00002 0ZM13.3334 12.6667V101.333H114.667V12.6667H13.3334ZM41.8334 69.6667H76.6667C77.5065 69.6667 78.312 69.333 78.9059 68.7392C79.4997 68.1453 79.8334 67.3399 79.8334 66.5C79.8334 65.6601 79.4997 64.8547 78.9059 64.2608C78.312 63.667 77.5065 63.3333 76.6667 63.3333H51.3334C47.1341 63.3333 43.1068 61.6652 40.1375 58.6959C37.1682 55.7265 35.5 51.6993 35.5 47.5C35.5 43.3007 37.1682 39.2735 40.1375 36.3041C43.1068 33.3348 47.1341 31.6667 51.3334 31.6667H57.6667V19H70.3334V31.6667H86.1667V44.3333H51.3334C50.4935 44.3333 49.688 44.667 49.0942 45.2608C48.5003 45.8547 48.1667 46.6601 48.1667 47.5C48.1667 48.3399 48.5003 49.1453 49.0942 49.7392C49.688 50.333 50.4935 50.6667 51.3334 50.6667H76.6667C80.866 50.6667 84.8932 52.3348 87.8626 55.3041C90.8319 58.2735 92.5 62.3007 92.5 66.5C92.5 70.6993 90.8319 74.7265 87.8626 77.6959C84.8932 80.6652 80.866 82.3333 76.6667 82.3333H70.3334V95H57.6667V82.3333H41.8334V69.6667Z" fill="#FF9900"/>
</svg>
