<svg width="32" height="33" viewBox="0 0 32 33" fill="none" xmlns="http://www.w3.org/2000/svg">
<path d="M3.0347 0.34375C1.47728 0.34375 0.1875 1.66157 0.1875 3.25284V29.4347C0.1875 31.0259 1.47728 32.3438 3.0347 32.3438H28.6595C30.2169 32.3438 31.5066 31.0259 31.5066 29.4347V3.25284C31.5066 1.66157 30.2169 0.34375 28.6595 0.34375H3.0347ZM3.0347 3.25284H28.6595V29.4347H21.2738V19.6165H24.9666L25.5005 15.2528H21.2753V12.4339C21.2753 11.1627 21.5799 10.2987 23.3651 10.2987H25.6784V6.34375C25.2841 6.29284 23.916 6.20702 22.343 6.20702C19.0616 6.20702 16.8265 8.22448 16.8265 11.9801V15.2528H13.0896V19.6165H16.8251V29.4347H3.0347V3.25284Z" fill="#FF9900"/>
</svg>
