<svg width="33" height="33" viewBox="0 0 33 33" fill="none" xmlns="http://www.w3.org/2000/svg">
<path fill-rule="evenodd" clip-rule="evenodd" d="M16.4166 9.14404C14.4878 9.14404 12.638 9.91027 11.2741 11.2742C9.91015 12.6381 9.14392 14.4879 9.14392 16.4168C9.14392 18.3456 9.91015 20.1955 11.2741 21.5594C12.638 22.9233 14.4878 23.6895 16.4166 23.6895C18.3455 23.6895 20.1953 22.9233 21.5592 21.5594C22.9231 20.1955 23.6894 18.3456 23.6894 16.4168C23.6894 14.4879 22.9231 12.6381 21.5592 11.2742C20.1953 9.91027 18.3455 9.14404 16.4166 9.14404V9.14404ZM12.053 16.4168C12.053 17.5741 12.5128 18.684 13.3311 19.5023C14.1494 20.3207 15.2593 20.7804 16.4166 20.7804C17.574 20.7804 18.6839 20.3207 19.5022 19.5023C20.3205 18.684 20.7803 17.5741 20.7803 16.4168C20.7803 15.2595 20.3205 14.1496 19.5022 13.3312C18.6839 12.5129 17.574 12.0531 16.4166 12.0531C15.2593 12.0531 14.1494 12.5129 13.3311 13.3312C12.5128 14.1496 12.053 15.2595 12.053 16.4168Z" fill="#FF9900"/>
<path d="M25.1439 6.23511C24.7581 6.23511 24.3882 6.38835 24.1154 6.66113C23.8426 6.93391 23.6894 7.30388 23.6894 7.68965C23.6894 8.07542 23.8426 8.44539 24.1154 8.71817C24.3882 8.99095 24.7581 9.1442 25.1439 9.1442C25.5297 9.1442 25.8996 8.99095 26.1724 8.71817C26.4452 8.44539 26.5985 8.07542 26.5985 7.68965C26.5985 7.30388 26.4452 6.93391 26.1724 6.66113C25.8996 6.38835 25.5297 6.23511 25.1439 6.23511Z" fill="#FF9900"/>
<path fill-rule="evenodd" clip-rule="evenodd" d="M6.23484 0.416748C4.69176 0.416748 3.21188 1.02973 2.12076 2.12085C1.02964 3.21197 0.416656 4.69185 0.416656 6.23493V26.5986C0.416656 28.1416 1.02964 29.6215 2.12076 30.7126C3.21188 31.8038 4.69176 32.4167 6.23484 32.4167H26.5985C28.1416 32.4167 29.6214 31.8038 30.7126 30.7126C31.8037 29.6215 32.4167 28.1416 32.4167 26.5986V6.23493C32.4167 4.69185 31.8037 3.21197 30.7126 2.12085C29.6214 1.02973 28.1416 0.416748 26.5985 0.416748H6.23484ZM26.5985 3.32584H6.23484C5.4633 3.32584 4.72336 3.63233 4.1778 4.17789C3.63224 4.72345 3.32575 5.46339 3.32575 6.23493V26.5986C3.32575 27.3701 3.63224 28.11 4.1778 28.6556C4.72336 29.2012 5.4633 29.5077 6.23484 29.5077H26.5985C27.37 29.5077 28.11 29.2012 28.6555 28.6556C29.2011 28.11 29.5076 27.3701 29.5076 26.5986V6.23493C29.5076 5.46339 29.2011 4.72345 28.6555 4.17789C28.11 3.63233 27.37 3.32584 26.5985 3.32584Z" fill="#FF9900"/>
</svg>
