<svg width="33" height="33" viewBox="0 0 33 33" fill="none" xmlns="http://www.w3.org/2000/svg">
<path d="M0.34375 0.34375V32.3438H32.3438V0.34375H0.34375ZM3.25284 3.25284H29.4347V29.4347H3.25284V3.25284ZM20.2565 8.53139C17.711 8.53139 15.5903 10.8267 16.1823 13.6587C14.5226 13.5755 12.8989 13.144 11.4169 12.3922C9.93485 11.6404 8.62761 10.5851 7.58011 9.29502C7.2052 9.93336 7.00924 10.6609 7.01284 11.4012C7.01232 12.0886 7.18177 12.7654 7.50609 13.3714C7.83042 13.9774 8.29956 14.4938 8.87175 14.8747C8.21112 14.8514 7.56548 14.6715 6.98811 14.3496V14.3976C6.98617 15.3615 7.31786 16.2964 7.92688 17.0435C8.53589 17.7907 9.3847 18.304 10.3292 18.4965C9.71395 18.6558 9.07178 18.6821 8.44557 18.5736C8.71272 19.4026 9.23243 20.1274 9.93194 20.6464C10.6315 21.1655 11.4758 21.4528 12.3467 21.4681C10.8695 22.6263 9.04559 23.2539 7.16848 23.2499C6.83233 23.253 6.49627 23.237 6.16193 23.2019C8.07416 24.4279 10.2992 25.0768 12.5707 25.071C20.2448 25.071 24.4456 18.7132 24.4456 13.1961C24.4456 13.0172 24.4456 12.8354 24.431 12.6565C25.248 12.0613 25.9557 11.329 26.5227 10.4921C25.759 10.8287 24.9489 11.0479 24.1198 11.1423C24.99 10.6248 25.6416 9.80768 25.9525 8.84411C25.135 9.33003 24.2392 9.67012 23.3052 9.8492C22.9146 9.43175 22.4422 9.09928 21.9174 8.87254C21.3926 8.64581 20.8267 8.52967 20.255 8.53139H20.2565Z" fill="#FF9900"/>
</svg>
